<svg id="Layer_1" enable-background="new 0 0 512 512" height="512" viewBox="0 0 512 512" width="512" xmlns="http://www.w3.org/2000/svg"><g><path d="m426.858 308.83-285.577 163.189c-29.901 17.087-67.788 12.014-92.143-12.332-21.415-21.432-21.443-56.324-.018-77.75 41.689-40.587 108.632 1.603 91.012 56.185l32.74-18.709c-.648-73.999-92.251-111.691-144.965-58.69-33.119 33.119-33.101 87.03.001 120.16 47.39 47.312 105.94 29.936 128.258 17.182l285.578-163.189c16.885-10.562 2.77-35.231-14.886-26.046z"/><path d="m244.739 136.897c-3.934-3.031-7.701-6.33-11.269-9.899-3.677-3.677-6.637-7.881-8.817-12.44l-196.746 196.689c-8.409 8.409-15.295 17.772-20.677 27.74 18.521-18.286 42.188-29.526 67.749-32.379 42.463-42.451 126.54-126.504 169.76-169.711z"/><path d="m473.763 35.069c-46.768-46.758-122.866-46.76-169.638.002 0 0-49.467 49.476-49.467 49.476-5.858 5.858-5.833 15.379.024 21.237 33.145 33.15 87.089 33.099 120.176-.065 7.819-7.775 20.422-7.756 28.215.041 7.719 7.719 7.916 20.345-.025 28.282-33.109 33.119-33.109 87 .001 120.109.116.117.238.235.351.341 5.905 5.559 15.156 5.413 20.885-.314 0 0 49.479-49.471 49.479-49.471 46.917-46.915 46.847-122.791-.001-169.638z"/></g></svg>